<svg width="34" height="34" viewBox="0 0 34 34" fill="none" xmlns="http://www.w3.org/2000/svg">
<path d="M12.8333 17H12.8472" stroke="#F2F2F2" stroke-width="2" stroke-linecap="round" stroke-linejoin="round"/>
<path d="M21.1667 17H21.1806" stroke="#F2F2F2" stroke-width="2" stroke-linecap="round" stroke-linejoin="round"/>
<path d="M14.2222 22.5555C14.9167 22.9722 15.8889 23.25 17 23.25C18.1111 23.25 19.0833 22.9722 19.7778 22.5555" stroke="#F2F2F2" stroke-width="2" stroke-linecap="round" stroke-linejoin="round"/>
<path d="M26.7222 9.0833C27.9805 10.6606 28.8383 12.5191 29.2222 14.5C29.6919 14.7274 30.0879 15.0826 30.3651 15.5247C30.6422 15.9669 30.7892 16.4781 30.7892 17C30.7892 17.5218 30.6422 18.0331 30.3651 18.4752C30.0879 18.9174 29.6919 19.2725 29.2222 19.5C28.6226 22.2965 27.0822 24.8028 24.8579 26.6007C22.6336 28.3986 19.8601 29.3794 17 29.3794C14.14 29.3794 11.3664 28.3986 9.14211 26.6007C6.91784 24.8028 5.37738 22.2965 4.77779 19.5C4.30815 19.2725 3.91207 18.9174 3.63494 18.4752C3.3578 18.0331 3.21082 17.5218 3.21082 17C3.21082 16.4781 3.3578 15.9669 3.63494 15.5247C3.91207 15.0826 4.30815 14.7274 4.77779 14.5C5.35316 11.6812 6.8832 9.14722 9.10977 7.32548C11.3363 5.50374 14.1231 4.50578 17 4.49997C19.7778 4.49997 21.8611 6.02775 21.8611 7.97219C21.8611 9.91664 20.6111 11.4444 19.0833 11.4444C17.9722 11.4444 17 10.8889 17 10.0555" stroke="#F2F2F2" stroke-width="2" stroke-linecap="round" stroke-linejoin="round"/>
</svg>
