<svg width="361" height="151" viewBox="0 0 361 151" fill="none" xmlns="http://www.w3.org/2000/svg">
<path d="M63.9442 63.0743C63.9442 63.0743 72.4734 52.5466 80.4253 48.2126C83.5574 46.5055 85.494 45.769 88.9156 44.4971C95.6115 42.0081 99.7041 41.1802 106.895 39.9561C113.245 38.875 123.376 38.3047 123.376 38.3047C123.376 38.3047 137.718 20.0961 151.344 12.7096C163.829 5.9415 172.538 3.8099 187.303 1.97608C198.49 0.586658 205.053 0.765694 216.27 1.97608C224.808 2.89739 229.658 3.66163 237.745 6.10434C244.463 8.13355 254.226 12.7096 254.226 12.7096C254.226 12.7096 266.712 19.7276 274.703 29.2226C282.694 38.7176 283.089 38.2965 286.19 44.4971C287.439 46.9947 288.687 51.1023 288.687 51.1023C288.687 51.1023 296.875 49.7491 302.171 49.8639C312.349 50.0843 318.159 52.0967 327.143 56.0563C336.309 60.0964 341.149 63.3738 347.619 70.0923C353.271 75.9614 356.134 79.8005 358.607 87.0182C361.742 96.1703 358.607 111.375 358.607 111.375C358.607 111.375 355.81 121.765 351.615 127.475C345.081 136.368 339.34 139.876 328.641 144.401C323.642 146.515 315.156 146.465 315.156 146.465C315.156 146.465 254.89 149.462 216.27 149.768C150.155 150.29 111.39 149.768 46.9637 149.768C40.2384 149.768 36.4291 148.236 30.4825 145.639C24.2336 142.911 21.2589 140.462 16.4986 136.144C10.19 130.422 7.02568 126.549 4.01288 119.219C0.922677 111.7 0.449441 106.882 1.51574 98.9901C2.37217 92.6517 3.61182 89.0289 7.00944 83.3028C8.82119 80.2493 9.81632 78.4475 12.5031 75.8719C15.3081 73.183 17.4713 72.1245 20.9934 70.0923C27.4306 66.3783 36.4757 63.0743 36.4757 63.0743C36.4757 63.0743 42.5976 61.8025 44.966 61.423C46.1307 61.2364 46.7802 61.0905 47.9625 61.0102C49.1288 60.9309 50.9591 61.0102 50.9591 61.0102L54.4551 61.0102H56.4528L57.9511 61.0102L61.4471 61.8358L63.9442 63.0743Z" fill="#D9D9D9" stroke="black"/>
</svg>
