<svg width="34" height="34" viewBox="0 0 34 34" fill="none" xmlns="http://www.w3.org/2000/svg">
<path d="M28.1111 11.4445H5.88886C5.1218 11.4445 4.49997 12.0663 4.49997 12.8333V26.7222C4.49997 27.4893 5.1218 28.1111 5.88886 28.1111H28.1111C28.8781 28.1111 29.5 27.4893 29.5 26.7222V12.8333C29.5 12.0663 28.8781 11.4445 28.1111 11.4445Z" stroke="#F2F2F2" stroke-width="2" stroke-linecap="round" stroke-linejoin="round"/>
<path d="M14.2222 11.4444V7.27777C14.2222 6.44444 13.6667 5.88889 12.8333 5.88889H8.66666C8.2983 5.88889 7.94503 6.03521 7.68457 6.29568C7.4241 6.55615 7.27777 6.90942 7.27777 7.27777V11.4444" stroke="#F2F2F2" stroke-width="2" stroke-linecap="round" stroke-linejoin="round"/>
<path d="M26.7222 11.4444V7.27777C26.7222 6.44444 26.1667 5.88889 25.3333 5.88889H21.1667C20.7983 5.88889 20.445 6.03521 20.1846 6.29568C19.9241 6.55615 19.7778 6.90942 19.7778 7.27777V11.4444" stroke="#F2F2F2" stroke-width="2" stroke-linecap="round" stroke-linejoin="round"/>
</svg>
